<svg xmlns="http://www.w3.org/2000/svg" width="30" height="30" viewBox="0 0 30 30"><defs><style>.a{fill:none;}.b{fill:#45565e;}</style></defs><rect class="a" width="30" height="30"/><g transform="translate(2.005 3)"><path class="b" d="M27.87,10.853,26.505,5.027A2.568,2.568,0,0,0,24.022,3H5.964a2.568,2.568,0,0,0-2.47,2.027L2.128,10.853a4.59,4.59,0,0,0,.806,3.84,5.057,5.057,0,0,0,.364.387v9.253A2.642,2.642,0,0,0,5.9,27H24.1a2.642,2.642,0,0,0,2.6-2.667V15.08a4.872,4.872,0,0,0,.364-.373A4.574,4.574,0,0,0,27.87,10.853Zm-3.887-5.2,1.365,5.827a1.844,1.844,0,0,1-.325,1.56,1.515,1.515,0,0,1-1.222.627,1.643,1.643,0,0,1-1.573-1.52l-.754-6.48ZM16.3,5.667h2.548l.7,6.027a1.823,1.823,0,0,1-.429,1.427,1.534,1.534,0,0,1-1.235.547A1.678,1.678,0,0,1,16.3,11.92Zm-5.863,6.027.715-6.027H13.7V11.92a1.693,1.693,0,0,1-1.677,1.747,1.548,1.548,0,0,1-1.157-.547A1.927,1.927,0,0,1,10.436,11.693ZM4.651,11.48,5.964,5.667H8.525l-.754,6.48A1.653,1.653,0,0,1,6.2,13.667a1.487,1.487,0,0,1-1.209-.627A1.8,1.8,0,0,1,4.651,11.48ZM5.9,24.333v-8.04a2.3,2.3,0,0,0,.3.04A4.02,4.02,0,0,0,9.11,15.067a4.129,4.129,0,0,0,3,1.267,4.071,4.071,0,0,0,2.9-1.24,4.207,4.207,0,0,0,2.977,1.24A4.079,4.079,0,0,0,20.9,15.067a4.02,4.02,0,0,0,2.912,1.267,2.3,2.3,0,0,0,.3-.04v8.04Z" transform="translate(-2.005 -3)"/></g></svg>